# xmcd CD database file
#
# Track frame offsets:
#	150
#	12795
#	24647
#	36582
#	46760
#	57290
#	68260
#	84095
#	104980
#	118795
#	138030
#	149882
#
# Disc length: 2154 seconds
#
# Revision: 0
# Processed by: cddbd v1.5.2PL0 Copyright (c) Steve Scherf et al.
# Submitted via: CDex 1.70beta2
#
DISCID=a308680c
DTITLE=Various Artist - Talkin' Verve - Soundwaves Sampler One
DYEAR=1999
DGENRE=Jazz
TTITLE0=Chet Baker - Vehicle
TTITLE1=Willie Bobo - Mercy Mercy Mercy
TTITLE2=Roland Kirk - Dino-Soar
TTITLE3=Wes Montgomery - Goin' Out Of My head
TTITLE4=Walter Wanderley - Batacuda Surgiu
TTITLE5=Astrud Gilberto - Berimbay
TTITLE6=Stan Getz - Marakesh
TTITLE7=Cal Tjader - Soul Burst
TTITLE8=Dizzy Gillespie - Bang Bang
TTITLE9=Jimmy Smith - Groove Drops
TTITLE10=Chico O'Farrill - Descarga Numero 1000
TTITLE11=Louis Jordan - Ain't Nobody Here But Us Chickens
EXTD=YEAR: 1999
EXTT0=
EXTT1=
EXTT2=
EXTT3=
EXTT4=
EXTT5=
EXTT6=
EXTT7=
EXTT8=
EXTT9=
EXTT10=
EXTT11=
PLAYORDER=
